<?xml version="1.0" standalone="no"?><!DOCTYPE svg PUBLIC "-//W3C//DTD SVG 1.1//EN" "http://www.w3.org/Graphics/SVG/1.1/DTD/svg11.dtd"><svg t="1710732715979" class="icon" viewBox="0 0 1024 1024" version="1.1" xmlns="http://www.w3.org/2000/svg" p-id="1208" xmlns:xlink="http://www.w3.org/1999/xlink" width="200" height="200"><path d="M589.71 523.91m-282.59 0a282.59 282.59 0 1 0 565.18 0 282.59 282.59 0 1 0-565.18 0Z" fill="#FE6565" p-id="1209"></path><path d="M745.32 600.53l119.46 157.88c15 19.76 0.85 48.09-23.92 48.09H589.47z" fill="#FE6565" p-id="1210"></path><path d="M468.97 503.25m-313.25 0a313.25 313.25 0 1 0 626.5 0 313.25 313.25 0 1 0-626.5 0Z" fill="#FED54A" p-id="1211"></path><path d="M296.46 588.19L160.09 768.41c-15 19.76-0.86 48.09 23.92 48.09h285.2z" fill="#FED54A" p-id="1212"></path><path d="M308.19 398a38.3 47 0 1 0 76.6 0 38.3 47 0 1 0-76.6 0Z" fill="#7F3030" p-id="1213"></path><path d="M556.21 398a38.3 47 0 1 0 76.6 0 38.3 47 0 1 0-76.6 0Z" fill="#7F3030" p-id="1214"></path><path d="M347.21 515h243.52a34.9 34.9 0 0 1 34.9 34.9v8.44A156.66 156.66 0 0 1 469 715a156.66 156.66 0 0 1-156.69-156.66v-8.44a34.9 34.9 0 0 1 34.9-34.9z" fill="#FE6565" p-id="1215"></path></svg>